<svg id="Layer_1" data-name="Layer 1" xmlns="http://www.w3.org/2000/svg" viewBox="0 0 167.83 44.21"><defs><style>.cls-1{fill:#231f20;}.cls-2{fill:#fff;}</style></defs><title>jetcitylogo</title><path class="cls-1" d="M158.29,7.67H100.73a22.1,22.1,0,0,0-33.3,0H.17l24.32,27.5a5.72,5.72,0,0,0,4.09,1.58H67.43a22.11,22.11,0,0,0,33.3,0H139.5a5.68,5.68,0,0,0,4.05-1.57L168,7.67Z" transform="translate(-0.17 -0.1)"/><path class="cls-2" d="M99.05,11.49a18.1,18.1,0,0,0-30,0H8.76l8.94,7.83a6.22,6.22,0,0,0,3.95,1.15H37.08l.8-1.22H21.66a5.19,5.19,0,0,1-3.15-.85L12,12.71H69.73c.13-.21.26-.41.4-.61s.29-.41.44-.61a16.88,16.88,0,0,1,27,0c.15.2.3.4.44.61s.27.4.4.61H156l-6.66,5.47a6.88,6.88,0,0,1-4,1.06H137l-.11.17-.7,1.05h9.1a7.88,7.88,0,0,0,4.8-1.34l9.3-7.63Z" transform="translate(-0.17 -0.1)"/><path class="cls-2" d="M129.27,25.6h17l-5.81,5.51a5.26,5.26,0,0,1-3.41,1H112.77v1.2h24.31A6.29,6.29,0,0,0,141.32,32l8-7.58H130.06Z" transform="translate(-0.17 -0.1)"/><path class="cls-2" d="M55.6,32.15H30a3.94,3.94,0,0,1-2.64-.82L21.73,25.6h6.68l.08-.12.4-.63.29-.45H18.85l7.69,7.78A5,5,0,0,0,30,33.35H55.6Z" transform="translate(-0.17 -0.1)"/><path class="cls-2" d="M64.92,30.06V33.3H63.58v-.39a3.08,3.08,0,0,1-1.83.59,2.67,2.67,0,0,1-2-.81,3.09,3.09,0,0,1-.76-2.19,3.06,3.06,0,0,1,3.26-3.26,2.79,2.79,0,0,1,2.72,1.56l-1.56.59a1.15,1.15,0,0,0-1.13-.74q-1.44,0-1.44,1.81,0,1.65,1.42,1.64a1,1,0,0,0,1.15-.88H62.23V30.06Z" transform="translate(-0.17 -0.1)"/><path class="cls-2" d="M70.64,32.46H68.55l-.23.84h-2l2.24-5.87h2.08l2.2,5.87h-2Zm-.38-1.29-.69-2.36-.7,2.36Z" transform="translate(-0.17 -0.1)"/><path class="cls-2" d="M76,31.25v2H74.17V27.43h3.33a2.17,2.17,0,0,1,1.6.5,1.86,1.86,0,0,1,.49,1.36,1.69,1.69,0,0,1-.29,1,2,2,0,0,1-.94.64l1.38,2.33h-2l-1.14-2ZM76,30h.84a1.25,1.25,0,0,0,.75-.16.66.66,0,0,0,.24-.55.64.64,0,0,0-.28-.58,1.41,1.41,0,0,0-.7-.12H76Z" transform="translate(-0.17 -0.1)"/><path class="cls-2" d="M81.31,27.43H84a4.31,4.31,0,0,1,1.32.17,2.08,2.08,0,0,1,.88.56,3.09,3.09,0,0,1,.72,2.2,3,3,0,0,1-.86,2.34,3,3,0,0,1-2.06.6H81.31ZM83.13,32h.48a1.38,1.38,0,0,0,1.19-.47,1.93,1.93,0,0,0,.33-1.16,1.82,1.82,0,0,0-.4-1.25,1.41,1.41,0,0,0-1.12-.4h-.48Z" transform="translate(-0.17 -0.1)"/><path class="cls-2" d="M93.34,27.43v1.29h-2.8v.84h2.64v1.29H90.54V32h3.07V33.3H88.72V27.43Z" transform="translate(-0.17 -0.1)"/><path class="cls-2" d="M101.08,33.3h-2l-1.69-2.88a6,6,0,0,1-.48-1h0a8.73,8.73,0,0,1,.23,1.68V33.3h-1.8V27.43h2L99,30.24a7.39,7.39,0,0,1,.48,1.11h0a11,11,0,0,1-.18-1.64V27.43h1.78Z" transform="translate(-0.17 -0.1)"/><path class="cls-2" d="M108.26,28.32l-1.2.88a1.83,1.83,0,0,0-1.42-.56q-.79,0-.79.44a.29.29,0,0,0,.17.27,3.05,3.05,0,0,0,.73.2,6.94,6.94,0,0,1,1.72.49,1.46,1.46,0,0,1,.81,1.37,1.81,1.81,0,0,1-.76,1.53,3.32,3.32,0,0,1-2,.57,3.37,3.37,0,0,1-3-1.3l1.47-.81a1.4,1.4,0,0,0,.59.49,2.58,2.58,0,0,0,1,.18q.93,0,.93-.48c0-.19-.15-.32-.45-.39l-1-.2a3.7,3.7,0,0,1-1.54-.56,1.47,1.47,0,0,1-.55-1.24,1.69,1.69,0,0,1,.7-1.42,3,3,0,0,1,1.87-.53A3.71,3.71,0,0,1,108.26,28.32Z" transform="translate(-0.17 -0.1)"/><path class="cls-2" d="M32.83,23.1h3.61a2.75,2.75,0,0,0,2.28-1l4.45-6.69h4.42L42.47,23.1c-1.57,2.34-3.12,2.36-4.18,2.36h-7Z" transform="translate(-0.17 -0.1)"/><path class="cls-2" d="M45.3,25.46l5.28-7.92-1.4-2.11H64.67l-1.4,2.11H55l-1.23,1.8h6.56l-1.31,2H52.49l-1.2,1.79h7.55l1.57,2.36Z" transform="translate(-0.17 -0.1)"/><path class="cls-2" d="M65.57,25.46l5.28-7.92H65.63L67,15.42H81.09l-1.4,2.11H75.26L70,25.46Z" transform="translate(-0.17 -0.1)"/><path class="cls-2" d="M80.33,25.46c-1.3,0-2.71-.69-1.6-2.36l3.69-5.56a3.92,3.92,0,0,1,3.71-2.11h9.39L94.1,17.53H88.22a2,2,0,0,0-2,.93L83.15,23.1h6.34l1.57,2.36Z" transform="translate(-0.17 -0.1)"/><path class="cls-2" d="M93,25.46l6.69-10h4.42l-6.69,10Z" transform="translate(-0.17 -0.1)"/><path class="cls-2" d="M105.21,25.46l5.28-7.92h-5.21l1.4-2.11h14.06l-1.4,2.11H114.9l-5.28,7.92Z" transform="translate(-0.17 -0.1)"/><path class="cls-2" d="M132.42,15.42h4.42l-2.46,3.68c-1.57,2.34-3.15,2.36-4.18,2.36h-2.11l-2.7,4H121l2.63-4h-1.69c-1.3,0-2.73-.69-1.6-2.36l2.44-3.68h4.4l-1.84,2.77c-.39.59-.17,1,.66,1h2.33a2.31,2.31,0,0,0,2.26-1Z" transform="translate(-0.17 -0.1)"/><path class="cls-2" d="M88.09,39.84h-.56a10.79,10.79,0,0,0-2,.19,6.81,6.81,0,0,0,1.92-2.56l.17-.34-.34.17a5.73,5.73,0,0,0-2.49,2.13,7.16,7.16,0,0,0-.45-3.66h0l0-.05-.12-.31-.13.35a7.06,7.06,0,0,0-.44,3.59,9.17,9.17,0,0,0-1.91-1.77l-.64-.48-.47-.35h0l.23.46,0,.06.1.22A5.21,5.21,0,0,0,82.71,40a9.21,9.21,0,0,0-1.87-.09h-.45l.4.24a7.36,7.36,0,0,0,2.49.73c-.53.23-1.26.62-1.34,1l0,.14L82,42h.06l.15,0a3.85,3.85,0,0,0,2-1.14l.2.15a3.19,3.19,0,0,0,1.91.89l.25,0-.16-.2a3.51,3.51,0,0,0-1.09-.85,6.06,6.06,0,0,0,2.18-.75Z" transform="translate(-0.17 -0.1)"/></svg>