<svg id="Layer_1" data-name="Layer 1" xmlns="http://www.w3.org/2000/svg" viewBox="0 0 49.61 45.76"><defs><style>.cls-1{fill:#e6e7e8;}</style></defs><title>potleaf</title><path class="cls-1" d="M45.42,14.05l.44.18L44.64,15.6l.34.23-1.07,1.55.6.11L43.23,19.1l.56.12-1.1,1.37.66,0-1.42,1.31.59.39L41,23.6l.5.26L39.9,25.09l.51.21-1.25.93.43.13-2,1.18.58.13c-.43.24-.81.43-1.16.66-.59.4-1.16.83-1.75,1.25l.38.2-2,1,.58.22-1.89.79.15.23-2,.85.37.21-1.59.83.45.13-3.58,2.42.06.1,4.09-2.39,0,.47L32,33.1l0,.62,1.73-1.32v.54l1.51-1.27v.52L37,31.12l0,.56,2-1.05-.07.61,2.05-.8-.14.58L43,30.57l.08.41,2.24-.25-.25.46L47,31l-.13.44,2.74.31v.09l-3.22.71.38.32-1.82.3.56.35-1.66.43.58.34-2.09.32.59.43-2.28.32.81.52-2.52.45.66.49-2.7.12.55.62-2.11-.3.22.44-2.36-.34.3.55-2.53-.51.37.45-5.74-.55v.15l3.45.35,0,.11a1.59,1.59,0,0,0,.47.26c.4.06.8.07,1.3.1l-.37.29,2.28.43-.46.33,2,.71-.39.28,1.62.87-.36.16,3.15,2.44,0,.07-3.52-1.27,0,.35-1.61-.68.07.4-1.63-.9.08.47-1.39-1,.12.67-1.93-1.5,0,.52c-.53-.63-1-1.26-1.56-1.82s-1.17-1-1.76-1.55l-.12.1a3.39,3.39,0,0,0,0,.42q.22,3.45.45,6.91c0,.12.11.25.09.37a1.85,1.85,0,0,1-.18.44c-.12-.11-.32-.2-.33-.32-.13-1.42-.27-2.84-.33-4.27-.05-1.18,0-2.37-.08-3.57a11,11,0,0,0-3.44,3.34l0-.58-1.94,1.49.13-.66-1.39,1,.07-.46-1.61.87.07-.39-1.63.68.08-.36-3.52,1.25,0-.07,3.1-2.38-.26-.23,1.56-.83-.4-.27,2-.71-.47-.33,2.3-.42-.39-.29c.51,0,.92-.05,1.33-.11a1.2,1.2,0,0,0,.38-.21l0-.14,3.47-.33v-.15l-5.62.52.38-.45-2.53.49.32-.54L14,37.63l.31-.45-2.14.29.52-.61L10,36.74l.6-.5L8.1,35.78l.84-.51-2.25-.34.57-.43-2.07-.33.56-.34L4.11,33.4l.54-.35-1.81-.31.37-.32L0,31.7v-.09l2.75-.3-.18-.44,2,.21-.29-.47,2.28.26,0-.42,2.15.46-.06-.56,2,.79-.07-.61,2,1.08,0-.55,1.62,1,.08-.45,1.51,1.28-.06-.58,1.76,1.37,0-.63,1.66,1.47,0-.42,4.67,2.76,0-.08L19.84,34l.44-.13L18.69,33l.41-.2-2-.87.18-.22-1.84-.79.45-.28L14,29.71l.45-.17s0-.08,0-.09l-2.49-1.6-.39-.24.56-.13-2-1.17.39-.17-1.24-.93L9.77,25,8.23,23.79l.34-.21-1.33-1.4.48-.28L6.25,20.55l.76,0L5.92,19.14,6.48,19,5.22,17.39l.59-.13L4.75,15.71l.37-.19L3.89,14.12l.43-.19L2.68,11.23l.1-.09,2.69,2.17L5.67,13l1.49,1.62,0-.51,1.6,1.55.09-.51,1.39,1.72.18-.26,1.22,1.61.08-.47,1.1,1.79.17-.4,1,1.84.16-.83,1,2.18.24-.61L16.57,24l.2-.5,1.37,2.78.09-.59L19.39,28l.16-.3,1,2.47.23-.58.85,2.44.17-.56a18.35,18.35,0,0,0,2.52,5.11,3,3,0,0,0-.06-.39,21.07,21.07,0,0,1-1-3.06c-.15-.94-.69-1.75-.8-2.63a6.83,6.83,0,0,1-.31-1.81c.13-.7-.32-1.15-.4-1.74,0-.14-.37-.37.07-.46a1.47,1.47,0,0,0,0-.26c-.11-.36-.24-.71-.32-1.07s-.39-.57,0-.86c.06,0,0-.28,0-.42-.11-.64-.23-1.27-.35-2l.41.09L21,19.71l.36.09-.34-2.33.4,0-.16-1.73.34.11-.21-2,.36.06-.22-2.15.57.16-.18-2,.12,0a1.54,1.54,0,0,0,.19-.43c0-.32,0-.65,0-1,0-.17-.21-.55.28-.47a.84.84,0,0,0,.06-.22c.06-.35.1-.71.18-1.05,0-.11.16-.19.23-.29a.79.79,0,0,0,.15-.31c.05-.45.09-.9.11-1.2.19-.22.35-.33.38-.46.1-.36.13-.73.21-1.1,0-.17-.07-.48.31-.39a.66.66,0,0,0,.09-.23c.17-.94.34-1.88.58-2.83l.37,2.12a5.35,5.35,0,0,0,.11.67.7.7,0,0,0,.29.32c.25.55.12,1.23.48,1.75l.19-.06a7.7,7.7,0,0,0,.11,1c.06.26-.2.69.35.76.06,0,.08.33.1.5.05.34.09.67.14,1h.35a6.47,6.47,0,0,0,0,1.09c0,.25-.29.66.26.75a1.31,1.31,0,0,1,0,.42c0,.51-.11,1-.17,1.58l.58-.13-.23,2.11.36,0L28,15.85l.35-.11-.21,1.77.43-.06-.34,2.34.35,0-.49,2.3.36,0c0,.86-.46,1.67-.29,2.52h.18A8.52,8.52,0,0,0,28,25.66c-.06.33-.46.65-.06,1,0,0,0,.15-.07.22A9.68,9.68,0,0,0,27.44,28c-.09.34-.05.72-.13,1.06s-.42.8-.32,1.1c.22.67-.26,1.09-.36,1.63a13.29,13.29,0,0,1-.31,1.56c-.3,1-.67,1.9-1,2.84a1.89,1.89,0,0,0-.11.46,17,17,0,0,0,2.58-5.1l.19.54.84-2.38.26.53,1-2.4.21.19,1.17-2.33.08.6,1.37-2.75.22.47,1.13-2.3.23.64,1-2.2.14.86,1-1.83.21.35,1.1-1.73.11.4,1.19-1.54.2.24,1.37-1.68.13.47,1.59-1.53.07.5L44.09,13l.14.41L47,11.23l.1.07Z"/></svg>